<?xml version="1.0" encoding="UTF-8" standalone="no"?>
<!-- Created with Inkscape (http://www.inkscape.org/) -->
<svg
   xmlns:dc="http://purl.org/dc/elements/1.1/"
   xmlns:cc="http://creativecommons.org/ns#"
   xmlns:rdf="http://www.w3.org/1999/02/22-rdf-syntax-ns#"
   xmlns:svg="http://www.w3.org/2000/svg"
   xmlns="http://www.w3.org/2000/svg"
   xmlns:sodipodi="http://sodipodi.sourceforge.net/DTD/sodipodi-0.dtd"
   xmlns:inkscape="http://www.inkscape.org/namespaces/inkscape"
   width="744.09448819"
   height="1052.3622047"
   id="svg3340"
   sodipodi:version="0.32"
   inkscape:version="0.46"
   sodipodi:docname="virtaal8.svg"
   inkscape:output_extension="org.inkscape.output.svg.inkscape"
   inkscape:export-filename="/home/heather/Desktop/logo development/Virtaal/virtaal7.png"
   inkscape:export-xdpi="90"
   inkscape:export-ydpi="90">
  <defs
     id="defs3342">
    <inkscape:perspective
       sodipodi:type="inkscape:persp3d"
       inkscape:vp_x="0 : 526.18109 : 1"
       inkscape:vp_y="0 : 1000 : 0"
       inkscape:vp_z="744.09448 : 526.18109 : 1"
       inkscape:persp3d-origin="372.04724 : 350.78739 : 1"
       id="perspective3348" />
    <filter
       inkscape:collect="always"
       id="filter3913">
      <feGaussianBlur
         inkscape:collect="always"
         stdDeviation="3.8099069"
         id="feGaussianBlur3915" />
    </filter>
  </defs>
  <sodipodi:namedview
     id="base"
     pagecolor="#ffffff"
     bordercolor="#666666"
     borderopacity="1.0"
     gridtolerance="10000"
     guidetolerance="10"
     objecttolerance="10"
     inkscape:pageopacity="0.0"
     inkscape:pageshadow="2"
     inkscape:zoom="1.979899"
     inkscape:cx="193.51701"
     inkscape:cy="700.8122"
     inkscape:document-units="px"
     inkscape:current-layer="layer1"
     showgrid="false"
     inkscape:window-width="1280"
     inkscape:window-height="953"
     inkscape:window-x="0"
     inkscape:window-y="24" />
  <metadata
     id="metadata3345">
    <rdf:RDF>
      <cc:Work
         rdf:about="">
        <dc:format>image/svg+xml</dc:format>
        <dc:type
           rdf:resource="http://purl.org/dc/dcmitype/StillImage" />
      </cc:Work>
    </rdf:RDF>
  </metadata>
  <g
     inkscape:label="Layer 1"
     inkscape:groupmode="layer"
     id="layer1">
    <path
       style="fill:none;fill-opacity:1;fill-rule:nonzero;stroke:#000000;stroke-width:1;stroke-linejoin:miter;stroke-miterlimit:4;stroke-dasharray:none;stroke-dashoffset:0;stroke-opacity:1;opacity:0.0122449"
       id="path3261"
       d="M 169.99997,212.2255 C 113.64304,212.2255 67.904251,240.0149 67.904251,274.24704 C 67.904251,308.47925 113.64304,336.2686 169.99997,336.2686 C 175.71516,336.2686 181.29572,336.00382 186.75586,335.45461 C 185.12512,344.19143 182.5698,350.25716 178.95292,355.55871 C 174.57325,361.97823 167.76469,366.90502 158.17236,371.5118 C 182.03491,373.07811 194.46989,367.72348 206.46863,359.95397 C 224.77582,348.09951 227.67997,331.04221 227.90627,325.28053 C 254.77334,314.10565 272.09569,295.50545 272.09575,274.24704 C 272.09575,240.01484 226.357,212.2255 169.99997,212.2255 z" />
    <path
       style="opacity:1;fill:#53536c;fill-opacity:1;fill-rule:evenodd;stroke:none;stroke-width:1;stroke-linecap:round;stroke-linejoin:round;stroke-miterlimit:4;stroke-dasharray:none;stroke-dashoffset:0;stroke-opacity:1;filter:url(#filter3913)"
       d="M 163.7403,364.53614 C 170.07125,361.10179 177.12538,354.18411 180.13308,348.46044 C 181.9771,344.95129 185.64285,334.59551 185.64285,332.89534 C 185.64285,332.87308 178.81249,332.83447 170.46428,332.80954 C 145.08129,332.73376 126.89883,328.8858 108.35368,319.66507 C 98.937464,314.98328 93.424714,311.11953 87.042924,304.72883 C 77.911394,295.58458 73.554774,286.77328 72.943534,276.21277 C 72.504364,268.62514 73.548094,263.78438 77.263744,256.17571 C 82.573134,245.30349 95.495744,234.02053 110.91339,226.79557 C 155.06964,206.10326 219.55908,212.92866 249.84606,241.49986 C 260.96486,251.98875 265.80158,261.92293 265.80158,274.27088 C 265.80157,280.52866 264.28191,286.1579 260.77055,292.90711 C 255.84453,302.37546 241.80288,314.48533 229.04013,320.27223 C 225.47378,321.88928 224.18986,322.85495 223.95127,324.0996 C 221.55695,336.59037 219.33132,340.99322 211.35713,349.01408 C 199.436,361.00499 184.93906,366.86026 167.28011,366.81665 L 159.57142,366.79763 L 163.7403,364.53614 z M 186.92856,302.40711 C 187.43591,301.89977 187.78571,299.45899 187.78571,296.42627 L 187.78571,291.30258 L 184.63616,291.23935 C 182.74742,291.20144 181.15621,291.57426 180.66123,292.17068 C 179.53431,293.52853 179.51173,297.25849 180.62231,298.59666 C 181.24173,299.34301 181.2762,299.69283 180.73031,299.69283 C 180.28935,299.69283 179.92856,300.11068 179.92856,300.6214 C 179.92856,302.18576 181.53174,303.26426 183.85713,303.26426 C 185.07499,303.26426 186.45713,302.87854 186.92856,302.40711 L 186.92856,302.40711 z M 214.7857,302.40711 C 215.29305,301.89977 215.64285,299.45899 215.64285,296.42627 L 215.64285,291.30258 L 212.49331,291.23935 C 210.60456,291.20144 209.01336,291.57426 208.51837,292.17068 C 207.39145,293.52853 207.36888,297.25849 208.47946,298.59666 C 209.09888,299.34301 209.13334,299.69283 208.58745,299.69283 C 208.14649,299.69283 207.78571,300.11068 207.78571,300.6214 C 207.78571,302.18576 209.38888,303.26426 211.71428,303.26426 C 212.93213,303.26426 214.31428,302.87854 214.78571,302.40711 L 214.7857,302.40711 z M 138.76078,298.92671 C 141.02254,297.14762 141.20773,294.54343 139.21428,292.54997 C 136.56714,289.90283 132.58204,291.11248 131.68496,294.83546 C 131.32463,296.3308 131.62936,297.17283 133.04197,298.58546 C 135.25031,300.79378 136.30703,300.85683 138.76081,298.9267 L 138.76078,298.92671 z M 167.48698,299.69283 C 168.97861,299.69283 169.21428,299.35808 169.21428,297.23933 C 169.21428,292.88304 168.12928,291.1214 165.44624,291.1214 C 163.13706,291.1214 161.35713,292.15518 161.35713,293.4964 C 161.35713,293.85978 162.32142,293.96426 163.49999,293.72854 C 164.70878,293.48679 165.64285,293.60354 165.64285,293.9964 C 165.64285,294.37944 165.06428,294.69283 164.35713,294.69283 C 161.54171,294.69283 160.27421,298.27464 162.60713,299.63812 C 163.29463,300.03994 164.28521,300.21662 164.80841,300.03076 C 165.33161,299.84489 166.53697,299.69283 167.48698,299.69283 z M 197.78571,295.33208 C 197.78571,291.63913 197.6151,291.1214 196.39821,291.1214 C 195.27701,291.1214 194.96855,291.70286 194.79106,294.15095 C 194.63084,296.3609 194.23325,297.24465 193.32142,297.41761 C 192.27626,297.61586 192.07142,297.11081 192.07142,294.33568 C 192.07142,291.55508 191.86864,291.05745 190.82142,291.26814 C 189.82821,291.46798 189.58186,292.23186 189.62224,294.98669 C 189.68371,299.18111 190.79663,300.20929 194.85613,299.82216 L 197.78571,299.54277 L 197.78571,295.33208 z M 204.81356,299.69283 C 206.65371,299.69283 206.71492,299.56703 206.46421,296.29997 C 206.32101,294.4339 205.87754,292.50533 205.47874,292.01426 C 204.09666,290.31243 199.21428,291.13746 199.21428,293.07282 C 199.21428,293.89663 199.72905,294.05416 201.35713,293.72854 C 204.22526,293.15492 204.06625,293.72277 200.99999,295.00393 C 199.32358,295.70438 198.49999,296.51944 198.49999,297.47803 C 198.49999,299.0757 200.49205,300.54913 201.95127,300.03076 C 202.47447,299.84489 203.7625,299.69283 204.81356,299.69283 z M 223.34104,299.29518 C 226.4596,297.11087 224.70041,291.1214 220.94031,291.1214 C 216.89138,291.1214 215.54624,297.64118 219.21428,299.48731 C 221.47063,300.62292 221.44364,300.62418 223.34106,299.29518 L 223.34104,299.29518 z M 125.64285,297.54997 C 125.64285,295.64521 125.88094,295.40711 127.78571,295.40711 C 129.45237,295.40711 129.92856,295.08966 129.92856,293.97854 C 129.92856,292.86743 129.45237,292.54997 127.78571,292.54997 C 126.35713,292.54997 125.64285,292.19283 125.64285,291.47854 C 125.64285,290.73024 126.39682,290.40711 128.14285,290.40711 C 129.88888,290.40711 130.64285,290.08398 130.64285,289.33568 C 130.64285,288.51317 129.73015,288.26426 126.71428,288.26426 L 122.78571,288.26426 L 122.78571,293.97854 C 122.78571,299.21663 122.90476,299.69283 124.21428,299.69283 C 125.32539,299.69283 125.64285,299.21663 125.64285,297.54997 z M 144.21428,297.12595 C 144.21428,295.1598 144.5486,294.47166 145.64285,294.18551 C 146.43351,293.97873 147.07142,293.21121 147.07142,292.46666 C 147.07142,291.37338 146.53625,291.1214 144.21428,291.1214 L 141.35713,291.1214 L 141.35713,295.40711 C 141.35713,299.21663 141.51586,299.69283 142.78571,299.69283 C 143.94926,299.69283 144.21428,299.21663 144.21428,297.12596 L 144.21428,297.12595 z M 160.64285,298.6214 C 160.64285,297.84759 159.8492,297.54997 157.78571,297.54997 L 154.92856,297.54997 L 154.92856,292.90711 C 154.92856,288.74045 154.78204,288.26426 153.49999,288.26426 C 152.19047,288.26426 152.07142,288.74045 152.07142,293.97854 L 152.07142,299.69283 L 156.35713,299.69283 C 159.69047,299.69283 160.64285,299.45473 160.64285,298.6214 z M 173.49999,296.41901 C 173.49999,292.20329 175.19126,292.45091 175.50535,296.71263 C 175.68217,299.11184 175.99548,299.69283 177.11249,299.69283 C 178.29666,299.69283 178.49999,299.18226 178.49999,296.20886 C 178.49999,292.04598 177.66706,291.19286 173.65671,291.24821 L 170.64285,291.28981 L 170.64285,295.49132 C 170.64285,299.21663 170.80476,299.69283 172.07142,299.69283 C 173.2922,299.69283 173.49999,299.21663 173.49999,296.41902 L 173.49999,296.41901 z M 107.74967,281.20506 C 109.30028,280.77241 109.71762,279.8256 111.41768,272.88341 L 113.33601,265.04997 L 113.41801,273.44283 L 113.49999,281.83568 L 116.89285,281.82474 C 118.75892,281.81873 120.69448,281.55437 121.19409,281.23728 C 121.82549,280.83655 122.24119,277.44918 122.55737,270.12851 L 123.01228,259.59626 L 118.43471,260.09636 C 115.88313,260.37511 114.11363,260.32439 114.43668,259.98176 C 114.75541,259.64368 116.68399,259.1993 118.72239,258.99424 L 122.42856,258.6214 L 122.64803,254.76871 L 122.86749,250.91601 L 119.51261,251.37585 C 117.66744,251.62876 115.55975,251.83568 114.82887,251.83568 C 113.69148,251.83568 113.49999,252.41186 113.49999,255.83395 L 113.49999,259.83223 L 109.40107,259.58394 L 105.30216,259.33568 L 104.52456,263.97854 L 103.74696,268.6214 L 103.20628,265.04997 C 102.25904,258.79282 102.49388,259.0405 97.933534,259.48908 C 95.691524,259.70961 93.745004,259.98459 93.607954,260.10015 C 93.470894,260.2157 94.413594,265.15347 95.702834,271.07296 L 98.046894,281.83568 L 102.02344,281.76449 C 104.21054,281.72533 106.78735,281.47359 107.74968,281.20507 L 107.74967,281.20506 z M 130.10713,281.37722 L 132.78571,280.93448 L 132.78571,275.40112 C 132.78571,269.40147 133.14531,268.7338 136.79663,267.95397 L 139.02184,267.47873 L 139.37628,273.00187 C 139.68994,277.88916 139.95229,278.71556 141.6552,280.18033 C 143.04055,281.37198 144.46511,281.83568 146.7405,281.83568 C 149.5357,281.83568 149.95441,281.62426 150.36004,280.00808 L 150.81876,278.18048 L 152.33793,279.59798 C 154.37856,281.50202 157.30571,282.14276 159.87373,281.24755 C 161.21016,280.78166 162.07133,280.76399 162.21649,281.19948 C 162.35351,281.61058 164.09765,281.69397 166.54444,281.4064 L 170.64285,280.92471 L 170.67079,277.98736 L 170.69878,275.04997 L 171.71898,277.39815 C 173.10046,280.57771 177.08644,282.2995 180.79713,281.31953 C 182.2877,280.92588 183.54313,280.89366 183.66058,281.24603 C 183.77741,281.59656 185.60091,281.62491 187.79201,281.31026 L 191.71428,280.74701 L 191.91709,272.6315 C 192.14703,263.42872 191.53595,261.72011 187.39595,259.99031 C 184.63277,258.83578 178.72516,258.65672 176.11678,259.64843 C 174.77627,260.15808 174.23403,261.03346 173.84971,263.30824 C 173.53889,265.14785 173.62896,266.47394 174.08378,266.75503 C 174.52406,267.02716 174.12226,267.83606 173.09006,268.75546 L 171.35713,270.29901 L 171.35713,268.18726 C 171.35713,262.3229 167.63646,258.97854 161.11222,258.97854 C 155.10802,258.97854 153.68036,259.57886 153.16616,262.3198 C 152.91082,263.68076 152.52568,265.25359 152.31026,265.81498 C 152.07594,266.42566 152.35761,266.83568 153.01148,266.83568 C 153.76556,266.83568 153.4571,267.48298 152.01648,268.9236 C 150.86811,270.07196 149.92856,271.69806 149.92856,272.53718 C 149.92856,273.3763 149.60713,273.8642 149.21428,273.6214 C 148.08601,272.92409 148.31941,267.54997 149.47796,267.54997 C 150.05318,267.54997 150.63827,266.44681 150.89867,264.8714 C 151.62311,260.48855 151.47405,259.69283 149.92856,259.69283 C 148.73188,259.69283 148.49999,259.21663 148.49999,256.75926 C 148.49999,254.69102 148.23663,253.93498 147.60713,254.19617 C 140.93472,256.96473 139.21428,257.89138 139.21428,258.71663 C 139.21428,259.37077 138.31881,259.69283 136.49999,259.69283 C 135.00713,259.69283 133.39999,260.07854 132.92856,260.54997 C 132.26189,261.21663 132.07142,261.20871 132.07142,260.51433 C 132.07142,259.87881 130.88789,259.68326 127.96428,259.83576 L 123.85713,260.04997 L 123.65995,270.94283 L 123.46281,281.83568 L 125.44566,281.82781 C 126.53626,281.8235 128.63392,281.62073 130.10713,281.37722 z M 201.66327,280.71323 C 202.60717,279.76932 202.78571,277.36798 202.78571,265.61615 L 202.78571,251.64151 L 199.47171,252.09573 C 197.64903,252.34556 195.55975,252.54997 194.82887,252.54997 C 193.57646,252.54997 193.49999,253.39233 193.49999,267.19283 L 193.49999,281.83568 L 197.02041,281.83568 C 199.26839,281.83568 200.94651,281.42998 201.66326,280.71323 L 201.66327,280.71323 z M 222.81291,257.3714 C 225.01092,256.26301 226.5176,254.8181 227.66786,252.71548 C 228.58517,251.03866 230.28689,249.17484 231.44944,248.57366 C 234.07908,247.21383 236.35179,243.59341 236.35179,240.76426 C 236.35181,231.51252 219.29903,225.92932 207.08706,231.18278 C 196.27994,235.83186 196.53118,246.26853 207.54945,250.391 C 209.72925,251.20656 213.40629,252.07177 215.72065,252.31366 C 220.54483,252.8179 220.9831,253.67851 217.78571,256.36893 C 216.60713,257.36063 215.64285,258.35349 215.64285,258.57528 C 215.64285,259.55422 219.90264,258.83897 222.81293,257.3714 L 222.81291,257.3714 z"
       id="path3899" />
    <path
       style="fill:#80e5ff;fill-opacity:1;fill-rule:nonzero;stroke:none;stroke-width:1;stroke-linejoin:miter;stroke-miterlimit:4;stroke-dasharray:none;stroke-dashoffset:0;stroke-opacity:1"
       id="path3378"
       d="M 164.99997,209.36836 C 111.40305,209.36836 67.904253,236.03813 67.904253,268.89108 C 67.904253,301.74408 111.40305,328.41381 164.99997,328.41381 C 170.43527,328.41381 175.74253,328.1597 180.93526,327.63262 C 179.38439,336.01743 176.95421,341.83878 173.51446,346.92673 C 169.34928,353.08762 162.87416,357.8159 153.7516,362.23707 C 176.44552,363.74029 188.27151,358.60139 199.68263,351.1449 C 217.09325,339.76806 219.85517,323.39799 220.07039,317.86844 C 245.62168,307.1438 262.09569,289.29299 262.09575,268.89108 C 262.09575,236.03808 218.59699,209.36836 164.99997,209.36836 z" />
    <text
       xml:space="preserve"
       style="font-size:15.66961764999999929px;font-style:normal;font-variant:normal;font-weight:normal;font-stretch:normal;text-align:start;line-height:125%;writing-mode:lr-tb;text-anchor:start;fill:#004455;fill-opacity:1;stroke:none;stroke-width:1px;stroke-linecap:butt;stroke-linejoin:miter;stroke-opacity:1;font-family:Arial;-inkscape-font-specification:Arial"
       x="121.81638"
       y="304.1788"
       id="text3263"
       sodipodi:linespacing="125%"><tspan
         sodipodi:role="line"
         id="tspan3265"
         x="121.81638"
         y="304.1788"
         style="font-size:15.66961764999999929px;font-weight:bold;fill:#004455;fill-opacity:1;stroke:none;stroke-opacity:1;-inkscape-font-specification:Arial Bold">For Language</tspan></text>
    <text
       xml:space="preserve"
       style="font-size:15.66961765px;font-style:normal;font-variant:normal;font-weight:normal;font-stretch:normal;text-align:start;line-height:125%;writing-mode:lr-tb;text-anchor:start;fill:#ffffff;fill-opacity:1;stroke:none;stroke-width:1px;stroke-linecap:butt;stroke-linejoin:miter;stroke-opacity:1;font-family:Arial;-inkscape-font-specification:Arial"
       x="120.26348"
       y="303.12317"
       id="text8730"
       sodipodi:linespacing="125%"><tspan
         sodipodi:role="line"
         id="tspan8732"
         x="120.26348"
         y="303.12317"
         style="font-size:15.66961765px;font-weight:bold;fill:#ffffff;fill-opacity:1;stroke:none;stroke-opacity:1;-inkscape-font-specification:Arial Bold">For Language</tspan></text>
    <text
       xml:space="preserve"
       style="font-size:34.82137299px;font-style:normal;font-variant:normal;font-weight:normal;font-stretch:normal;text-align:start;line-height:125%;writing-mode:lr-tb;text-anchor:start;fill:#006680;fill-opacity:1;stroke:none;stroke-width:0.87053436px;stroke-linecap:butt;stroke-linejoin:miter;stroke-opacity:1;font-family:Rough Draft;-inkscape-font-specification:Rough Draft"
       x="100.8779"
       y="286.63895"
       id="text3267"
       sodipodi:linespacing="125%"><tspan
         sodipodi:role="line"
         id="tspan3269"
         x="100.8779"
         y="286.63895"
         style="font-size:34.82137299px;font-style:normal;font-variant:normal;font-weight:normal;font-stretch:normal;fill:#006680;stroke:none;stroke-width:0.87053436;stroke-opacity:1;font-family:GROBOLD;-inkscape-font-specification:GROBOLD">virtaal</tspan></text>
    <path
       style="fill:#004455;fill-opacity:1;fill-rule:nonzero;stroke:none;stroke-width:1;stroke-linejoin:miter;stroke-miterlimit:4;stroke-dasharray:none;stroke-dashoffset:0;stroke-opacity:1"
       id="path3271"
       d="M 218.27555,234.47918 C 208.05011,234.47918 199.75123,239.56735 199.75123,245.83517 C 199.75123,252.103 208.05011,257.19116 218.27555,257.19116 C 219.31252,257.19116 220.32506,257.14268 221.31575,257.04212 C 221.01987,258.64181 220.55623,259.75243 219.89998,260.72313 C 219.10533,261.89853 217.86998,262.80061 216.12954,263.6441 C 220.45918,263.93089 222.71539,262.95047 224.89245,261.52789 C 228.21412,259.35737 228.74105,256.23422 228.78211,255.17927 C 233.65689,253.13318 236.79987,249.72753 236.79988,245.83517 C 236.79988,239.56734 228.50101,234.47918 218.27555,234.47918 z" />
    <path
       style="fill:#ffffff;fill-opacity:1;fill-rule:nonzero;stroke:none;stroke-width:1;stroke-linejoin:miter;stroke-miterlimit:4;stroke-dasharray:none;stroke-dashoffset:0;stroke-opacity:1"
       id="path4953"
       d="M 217.38017,232.53035 C 207.15473,232.53035 198.85585,237.61852 198.85585,243.88634 C 198.85585,250.15417 207.15473,255.24233 217.38017,255.24233 C 218.41714,255.24233 219.42968,255.19385 220.42037,255.09329 C 220.12449,256.69298 219.66085,257.8036 219.0046,258.7743 C 218.20995,259.9497 216.9746,260.85178 215.23416,261.69527 C 219.5638,261.98206 221.82001,261.00164 223.99707,259.57906 C 227.31874,257.40854 227.84567,254.28539 227.88673,253.23044 C 232.76151,251.18435 235.90449,247.7787 235.9045,243.88634 C 235.9045,237.61851 227.60563,232.53035 217.38017,232.53035 z" />
    <text
       xml:space="preserve"
       style="font-size:34.82137299px;font-style:normal;font-variant:normal;font-weight:normal;font-stretch:normal;text-align:start;line-height:125%;writing-mode:lr-tb;text-anchor:start;fill:#ffdd55;fill-opacity:1;stroke:#ff6600;stroke-width:0.87053436px;stroke-linecap:butt;stroke-linejoin:miter;stroke-opacity:1;font-family:Rough Draft;-inkscape-font-specification:Rough Draft"
       x="97.511887"
       y="284.3403"
       id="text8718"
       sodipodi:linespacing="125%"><tspan
         sodipodi:role="line"
         id="tspan8720"
         x="97.511887"
         y="284.3403"
         style="font-size:34.82137299px;font-style:normal;font-variant:normal;font-weight:normal;font-stretch:normal;fill:#ffdd55;stroke:#ff6600;stroke-width:0.87053436;stroke-opacity:1;font-family:GROBOLD;-inkscape-font-specification:GROBOLD">virtaal</tspan></text>
    <path
       sodipodi:type="arc"
       style="opacity:1;fill:none;fill-opacity:0.99551571;fill-rule:evenodd;stroke:none;stroke-width:2;stroke-linecap:round;stroke-linejoin:round;stroke-miterlimit:4;stroke-dasharray:none;stroke-dashoffset:0;stroke-opacity:1"
       id="path2489"
       sodipodi:cx="154.64285"
       sodipodi:cy="288.07648"
       sodipodi:rx="146.78572"
       sodipodi:ry="97.85714"
       d="M 301.42857,288.07648 A 146.78572,97.85714 0 1 1 7.857132,288.07648 A 146.78572,97.85714 0 1 1 301.42857,288.07648 z"
       transform="matrix(0.9221411,0,0,0.9160584,7.0403189,15.967317)" />
  </g>
</svg>
