<svg xmlns="http://www.w3.org/2000/svg" width="64" height="64"><g transform="matrix(.62192 0 0 .62172 -16.335 -235.036)"><path d="M99.947 469.969c-4.55-2.35-9.291-4.82-10.537-5.488-2.24-1.201-2.307-1.21-5.94-.758-4.413.548-12.236.22-16.612-.697C51.954 459.904 39.373 451 33.55 439.451c-2.695-5.344-3.386-8.415-3.386-15.041 0-5.047.15-6.416.994-9.106 2.741-8.728 8.638-16.358 16.967-21.95 15.097-10.135 37.008-11.362 53.712-3.007 11.155 5.58 19.327 14.953 22.378 25.667 1.339 4.7 1.328 12.123-.026 16.88-1.017 3.579-3.145 8.108-5.244 11.16-2.161 3.143-6.282 7.246-8.479 8.441l-2.109 1.148.257 6.382c.141 3.51.367 8.148.5 10.307.194 3.124.127 3.922-.327 3.917-.313-.005-4.292-1.93-8.842-4.28z" fill="#168bd4" stroke="#29485c" stroke-width="6.99"/><ellipse cx="70.189" cy="417.149" rx="29.787" ry="23.45" opacity=".985" fill="#62c4fe"/></g></svg>