<svg xmlns="http://www.w3.org/2000/svg" width="64" height="64" viewBox="0 0 63.999996 63.999996"><defs><linearGradient id="d"><stop offset="0" stop-color="#f60"/><stop offset="1" stop-color="#f60" stop-opacity="0"/></linearGradient><linearGradient id="a"><stop offset="0" stop-color="#fff"/><stop offset="1" stop-color="#fff" stop-opacity="0"/></linearGradient><linearGradient id="c"><stop offset="0" stop-color="#164450"/><stop offset="1" stop-color="#164450" stop-opacity="0"/></linearGradient><linearGradient id="b"><stop offset="0" stop-color="#0055d4"/><stop offset="1" stop-color="#0055d4" stop-opacity="0"/></linearGradient></defs><g transform="translate(283.858 195.556)"><path d="M-237.934-138.22a809.613 809.613 0 0 1-6.6-3.437c-1.403-.752-1.445-.757-3.72-.475-2.764.344-7.664.139-10.404-.436-9.335-1.956-17.214-7.532-20.861-14.765-1.689-3.347-2.122-5.27-2.122-9.42 0-3.161.094-4.018.623-5.704 1.717-5.466 5.41-10.244 10.627-13.746 9.455-6.348 23.178-7.117 33.64-1.884 6.986 3.494 12.104 9.365 14.015 16.075.838 2.944.832 7.593-.016 10.572-.637 2.242-1.97 5.079-3.284 6.99-1.354 1.969-3.935 4.538-5.31 5.287l-1.322.719.161 3.997c.089 2.198.23 5.103.313 6.455.122 1.956.08 2.456-.204 2.453-.196-.003-2.689-1.209-5.538-2.68z" fill="none" stroke="#fff" stroke-width="3.935"/><flowRoot xml:space="preserve" style="line-height:50%;-inkscape-font-specification:'sans-serif, Normal';text-align:start" transform="translate(-490.551 -483.312)" font-style="normal" font-variant="normal" font-weight="400" font-stretch="normal" font-size="50" font-family="sans-serif" letter-spacing="0" word-spacing="0" writing-mode="lr-tb" text-anchor="start" fill="#000" fill-opacity="1" stroke="none" stroke-width="1" stroke-linecap="butt" stroke-linejoin="miter" stroke-opacity="1"><flowRegion><path d="M45.714 80.934h677.143v860H45.714z"/></flowRegion><flowPara/></flowRoot><text style="line-height:50%;-inkscape-font-specification:'sans-serif, Normal';text-align:start" x="-441.98" y="-456.664" font-weight="400" font-size="23.75" font-family="sans-serif" letter-spacing="0" word-spacing="0"/></g></svg>