<svg version="1" xmlns="http://www.w3.org/2000/svg" width="933.333" height="933.333" viewBox="0 0 700.000000 700.000000"><path d="M337.7 22.6c-.1.1-6 .5-13.2.8-16.2.9-24.4 1.7-32.5 3-1.4.3-4.3.7-6.5 1.1-2.2.3-5.6.8-7.5 1.1-8.2 1.3-31.4 6.7-42.5 9.9-51.3 15.1-93 37.3-132 70.4-9.1 7.7-29.1 27.2-34 33.2-1.1 1.4-4 4.9-6.5 7.9-8.1 9.8-23 30.9-23 32.7 0 .6-.4 1.3-.9 1.5-1.2.5-11 18.8-17.4 32.8-3.9 8.5-9.3 23.4-12.6 35-3.5 12.4-3.8 14-5.6 31.5-.5 4.5-.5 50.3-.1 58 1.9 32.3 11.3 62.7 29.8 95.5 8.1 14.4 10.6 18.3 18.9 29.5 17.9 24.4 40.2 46.8 66.4 66.7 6.8 5.1 32 21.8 33 21.8.4 0 1.9.9 3.4 1.9 4.1 3 31.1 16.3 43.6 21.6 11.4 4.8 35.5 13.2 46 16 12.7 3.4 20.1 5.3 24 6 2.2.5 4.2.9 4.5 1 .3 0 2.7.4 5.3.9 2.7.4 5.7.9 6.6 1.1 3.3.6 12.6 1.8 16.6 2.1 2.2.1 8.3.6 13.5 1.1 10.5.9 63.9 1 71 .1 2.5-.3 9.1-.9 14.6-1.3l10.1-.8 12.4 6.5c6.8 3.6 19.2 10 27.4 14.3 8.3 4.3 17.7 9.2 21 11 16.1 8.7 73 36.7 80.3 39.5l8.3 3.2 7.7-2.1c6.9-1.9 8.1-2.6 12.4-7.3 8-9 8.7-15.5 6.3-59.3-.1-2.2-.5-11.4-1-20.5-.4-9.1-.9-19-1-22-.2-3-.6-13.2-1-22.7l-.7-17.1 4.4-2.8c9.4-6 25.8-20.1 35.7-30.8 2-2.1 5.2-5.5 7.1-7.5 2.9-3.1 10-11.4 13.2-15.6 22.8-29.2 47-83.9 50.3-114 .4-3.2.8-6.2 1-6.5 1.7-2.8 2.5-47.1 1.1-62-.8-8.7-2.9-22.3-4.6-29.5-.6-2.8-1.3-5.7-1.5-6.5-1.7-8.2-9.9-29.6-16.9-44-8-16.6-10.4-20.8-21.2-37-5.6-8.5-9.2-13.3-20.7-27.5-5.4-6.8-30.8-31.8-38.6-38.1-4-3.2-10.5-8.3-14.5-11.2-3.9-2.9-7.9-5.9-8.9-6.7-.9-.8-1.9-1.5-2.2-1.5-.3 0-2.7-1.5-5.3-3.3-23-16.2-60.9-33.9-93.2-43.6-15.5-4.7-22.6-6.5-33.3-8.7-1-.2-2.6-.5-3.5-.8-.9-.3-3.5-.8-5.7-1.1-2.2-.3-6.2-1-9-1.5-7.4-1.4-11.3-1.9-18.5-2.6-3.6-.3-7.6-.8-9-1-7.1-1.1-50.2-2.7-51.3-1.8z"/></svg>